<svg id="Logo" xmlns="http://www.w3.org/2000/svg" viewBox="0 0 1810.54 649.37"><defs><style>.cls-1{fill:#fff;stroke:#fff;stroke-miterlimit:10;stroke-width:50px;}.cls-2{fill:#5f5f61;}.cls-3{fill:#6da282;}.cls-4{fill:#6e989c;}.cls-5{fill:#9c5876;}</style></defs><path class="cls-1" d="M568.39,1177.82q0,37.92,0,75.84a122.93,122.93,0,0,0,6.66,38.6c2.56,7.74,7,14.35,12,20.65a25.84,25.84,0,0,0,4.94,4.5c12.16,9,25.66,12.27,40.74,10.1a133.71,133.71,0,0,0,39.21-12.28,98.75,98.75,0,0,1,16-6.35c13-3.66,25,.33,33.26,11.06.78,1,1.44,2.12,2.21,3.14a23.67,23.67,0,0,1-2.41,30.7,125,125,0,0,1-22.5,17.86,147.21,147.21,0,0,1-32.07,15.06,114.43,114.43,0,0,1-34,5.44,108.38,108.38,0,0,1-29.34-4.29,144.3,144.3,0,0,1-54.89-28.64,106.88,106.88,0,0,1-32.35-45.72,109.87,109.87,0,0,1-7.18-37.52q-.18-20.64-.3-41.28a110.44,110.44,0,0,0-.86-15.31,60.45,60.45,0,0,1-.5-8.62q-.07-21.12,0-42.23a51.39,51.39,0,0,1,.35-7.66,123.9,123.9,0,0,0,1-19.15q0-25.92,0-51.84c0-2.56,0-5.12-.09-7.68a28.82,28.82,0,0,0-2.71-11.12,11.44,11.44,0,0,0-6.9-6.27,10.69,10.69,0,0,0-10.85,1.74,34.63,34.63,0,0,0-7.58,8.6c-8.66,13.83-17.25,27.7-26.05,41.43-4.14,6.46-8.51,12.8-13.17,18.89a120,120,0,0,1-10.39,11.26A26.28,26.28,0,0,1,420,1153a13.4,13.4,0,0,1-8.49,0,25.06,25.06,0,0,1-9.91-5.68,93.56,93.56,0,0,1-8.41-9.18,284.61,284.61,0,0,1-25.91-40.33c-4.24-7.9-8.58-15.73-14.27-22.72A48.23,48.23,0,0,0,339,1063.64a3.37,3.37,0,0,0-4.82,1.63,13.58,13.58,0,0,0-1,2.68c-1.18,7.25-2.78,14.45-2.79,21.86,0,11.84-.1,23.68-.13,35.52,0,17.27-.12,34.55,0,51.83a104.17,104.17,0,0,1-2.47,20.93,46.18,46.18,0,0,1-10,20.51c-13.2,15.92-35.8,11.32-43.69-1.94a38.84,38.84,0,0,1-4.41-9.55c-2.68-9.9-4.87-19.88-4.87-30.22,0-17.28-.1-34.56-.14-51.84a112.23,112.23,0,0,0-.85-15.32,70.93,70.93,0,0,1-.49-9.57q0-49,0-97.91a49,49,0,0,1,.28-7.67c1.28-8,1-16,1.06-23.94.05-13.76.11-27.52.11-41.28a59.68,59.68,0,0,1,2.27-16.1c2.88-10.34,9.46-17.21,19.42-21,2.09-.78,4.24-1.44,6.4-2,10.81-3,19.45.89,26.69,8.73a39.67,39.67,0,0,1,4.41,6.27c2.33,3.82,4.73,7.63,6.74,11.62a218.58,218.58,0,0,0,13.34,22.2c12.36,18.68,23.74,38,35.26,57.18q11.6,19.35,23.15,38.72a33.43,33.43,0,0,0,8.77,10,9.35,9.35,0,0,0,10.79.68,17.66,17.66,0,0,0,6.47-5.59c2.52-3.7,5.07-7.39,7.38-11.22q18.56-30.84,37-61.75,16.75-28,33.53-56a86.28,86.28,0,0,1,8.77-12.57c7.83-9,17.19-11.73,28.47-7.53a39,39,0,0,1,9.49,4.52,33,33,0,0,1,13.07,19.51,77.69,77.69,0,0,1,2.3,19q-.17,33.12-.06,66.24c0,14.63-1.05,12.57,10.34,21.58,2.5,2,4.75,4.28,7.18,6.36,3.41,2.9,6.83,5.79,10.35,8.55,2.88,2.26,4.12,1.83,5.63-1.84,1.95-4.73,3.81-9.5,5.72-14.25a201.17,201.17,0,0,1,29.83-51.25,160.32,160.32,0,0,1,48.93-41c17.7-9.59,36.66-15,56.38-18.08a189.41,189.41,0,0,1,21-2,150.68,150.68,0,0,1,54.75,8.08,157.56,157.56,0,0,1,46.28,24.94c9.6,7.42,19.09,15.1,26.41,25,16.46,18.36,28,39.59,37,62.42,1.16,3,2.32,6,3.64,8.86a4.09,4.09,0,0,0,3.87,2.4,47.48,47.48,0,0,0,5.71-.5c12.44-1.67,24.85-2,37.25.27l1,.16c9.68,1.5,9.64,2.2,12.8-7.75a195.73,195.73,0,0,1,20.61-44.26,183,183,0,0,1,48.85-52.23,163,163,0,0,1,58.89-27.07c10-2.33,20.21-3.27,30.39-4.15a86,86,0,0,1,18.19.63c7.94,1,15.89,1.79,23.7,3.58a159.43,159.43,0,0,1,66.45,33c6.66,5.49,13.39,10.93,19.22,17.36,10.09,11.14,20.4,22.14,27.73,35.43,3.39,6.15,6.4,12.52,9.62,18.78a18.6,18.6,0,0,0,2.47,4,2.75,2.75,0,0,0,2.57.36,17.28,17.28,0,0,0,3.74-2.93c6.89-6.68,13.56-13.61,21.35-19.3a7.87,7.87,0,0,0,3.35-6.58c0-2.87.12-5.75.13-8.63,0-13.76.11-27.52,0-41.28a78.44,78.44,0,0,1,1.93-18.09,56.46,56.46,0,0,1,3-9.09c4-9.71,11.32-16.09,21.09-19.71a71.4,71.4,0,0,1,13.94-3.45,181.6,181.6,0,0,1,37.34-1.47c23.71,1.2,47.13,4.32,69.62,12.51A158.23,158.23,0,0,1,1546.75,929c16.17,14,28.76,30.79,38.92,49.5a186,186,0,0,1,14.88,35.31,132.56,132.56,0,0,1,4.91,23.44c.61,5.4,1.44,10.8,1.59,16.22a167.34,167.34,0,0,1-7.61,53.91,179.49,179.49,0,0,1-34,62.88,170.16,170.16,0,0,1-56.16,44.1c-15.34,7.62-31.75,11.77-48.6,14.32-.32,0-.64.09-1,.11-21.39,1.37-42.77,2.88-64.23,2.12a82.23,82.23,0,0,1-19.83-3.29c-10.3-3-17.06-9.77-20.51-19.84a90.14,90.14,0,0,1-3.78-17.79c-2-15.29-1.74-30.64-1.78-46-.06-20.48,0-41,0-61.44,0-2.87-.11-5.75-.29-8.62,0-.53-.57-1.06-1-1.51s-1.83-.14-2.56.63a12.36,12.36,0,0,0-1.33,1.38c-3.1,4.46-6.22,8.91-9.25,13.42a16.48,16.48,0,0,0-2.73,9.07c0,1.6-.07,3.2-.09,4.8-.36,34.81-10.85,73.1-24.16,98.94a174.46,174.46,0,0,1-30,42,181.5,181.5,0,0,1-96.59,51.79,110.4,110.4,0,0,1-21,2.11c-3.52,0-7,0-10.56,0-24.65.17-47.28-7.09-68.65-18.81-10.69-5.86-20.35-13.18-29.77-21a197.73,197.73,0,0,1-34.4-37.27c-13.43-18.65-22.61-39.34-28.52-61.49a173.86,173.86,0,0,1-6.17-36.83c-.3-6.71-1.06-13.39-1.62-20.08,0-.32-.07-.63-.13-1a5.79,5.79,0,0,0-4-4.91,56.43,56.43,0,0,0-7.45-1.78,69.24,69.24,0,0,0-18.19-.32,29.62,29.62,0,0,0-5.58,1.34,5.23,5.23,0,0,0-4,4.78c-.12,1.27-.2,2.55-.23,3.83-.05,2.56,0,5.12-.07,7.68a207.25,207.25,0,0,1-19,82.63A189,189,0,0,1,896.43,1235c-15.57,19-33.75,34.94-55.81,46.17a176.89,176.89,0,0,1-38.45,14.69,151.51,151.51,0,0,1-64.73,1.75,162.42,162.42,0,0,1-50.22-18.4,183.84,183.84,0,0,1-31.79-23,188.85,188.85,0,0,1-42.4-55.26,198.1,198.1,0,0,1-20.4-64.67c-.85-6.36-1.39-12.71-2-19.08-.4-4.43-.37-9.06-2.25-13.17-1.78-3.9-5.84-5.82-8.86-8.64a73.22,73.22,0,0,0-7.59-5.81c-1.37-1-3.25.13-3.42,1.93-.1,1-.22,1.91-.24,2.86,0,1.92,0,3.84,0,5.76v77.75Zm74.82-69.8c-.4,7.2,1,18,3.17,28.65a147.16,147.16,0,0,0,23.45,55.26,127.91,127.91,0,0,0,36.84,35.94c22.67,14.37,47.36,20.27,74.19,16.28a108.57,108.57,0,0,0,41.29-14.63c11.28-6.9,21.52-15,30.06-25.13,22.25-26.3,33.91-56.89,36.24-91.12.9-13.14-.35-26.18-2.69-39.14a150.08,150.08,0,0,0-14.65-42.46c-11.1-21.52-26.43-39.17-47-52-22.81-14.23-47.46-20-74.28-15.83a110.08,110.08,0,0,0-49.89,20.94,135.52,135.52,0,0,0-39.3,46.5C648.69,1054.11,643.3,1078.56,643.21,1108Zm391.59-10.43c0,17.38,0,19.07,2.21,31.79,4.19,24,13.4,45.94,28.51,65.21,4.53,5.78,9.08,11.57,14.68,16.42a134.26,134.26,0,0,0,30.2,20.14c15.32,7.29,31.42,10.48,48.26,10.68,5.16.06,10.16-1,15.21-1.77a99.13,99.13,0,0,0,28.34-8.61c18.81-8.94,34.67-21.56,47-38.43a155.47,155.47,0,0,0,15.36-25.4c12.76-27.07,16.37-55.71,13.46-85.15a149.58,149.58,0,0,0-16.35-54.8,133.69,133.69,0,0,0-40.89-47.52c-18.09-13-38.21-20.49-60.8-20.27-5.11,0-10.23.13-15.34.3a42.62,42.62,0,0,0-6.67.69c-21.87,4.21-41.22,13.44-57.3,29.07-3.67,3.56-7.28,7.19-10.75,10.94a82.55,82.55,0,0,0-6.68,8.14,153.55,153.55,0,0,0-24.38,52.78A131.09,131.09,0,0,0,1034.8,1097.59Zm374.9-38.09h.06c0,22.71.06,45.42,0,68.13a85.51,85.51,0,0,0,2,19c2.33,10.45,8.37,17.76,19.08,20.67,9.78,2.67,19.7,2.52,29.5.81a90.75,90.75,0,0,0,34.53-13.76c11-7.24,21-15.59,29.23-26,17.32-21.88,26.8-46.32,25.41-74.53,0-.64,0-1.28-.06-1.92a61.9,61.9,0,0,0-1.74-12.32c-3.13-13.23-8.78-25.35-16-36.8a136.67,136.67,0,0,0-31.32-34.73c-11.21-8.83-23.57-15.27-37.69-18.13a61.21,61.21,0,0,0-32.16,2.29c-10.49,3.53-17,11-19.23,22a83.78,83.78,0,0,0-1.65,17.15Q1409.75,1025.44,1409.7,1059.5Z" transform="translate(-238.19 -767.77)"/><path class="cls-1" d="M1728.23,1108.8a204.59,204.59,0,0,0,1,20.68,134.75,134.75,0,0,1-.09,30.64,114.82,114.82,0,0,0-.92,14.34c0,7.36,0,14.71,0,22.07a36.22,36.22,0,0,1-2.37,13.15c-3.25,8.36-9.09,13.6-18,15.49a42,42,0,0,1-19-.4c-7.93-1.94-13.85-6.32-17-14.1-1.82-4.48-3.33-9-3.41-13.89-.17-9.59-.16-19.13,1.08-28.72,1.46-11.38,3-22.81,2.69-34.38-.18-6.41-.9-12.74-1.42-19.11a224.92,224.92,0,0,0-4-25.57c-3.19-16.1-8.83-31.35-15.54-46.27a274.77,274.77,0,0,0-31.52-52.57c-11-14.59-20.82-29.92-31-45.07a101.21,101.21,0,0,1-6.16-10.82,57.15,57.15,0,0,1-3.12-8c-2.81-8.68-.74-16.42,4.89-23.32a41.43,41.43,0,0,1,18.82-12.77,20.84,20.84,0,0,1,12.28-.53,28.4,28.4,0,0,1,15.88,10.14c2.35,3,4.43,6.27,6.56,9.46,8.53,12.77,16.93,25.62,25.58,38.3,5.94,8.72,12.13,17.28,18.4,25.76a76.53,76.53,0,0,0,7.69,8.53,20.34,20.34,0,0,0,4.7,3.26,9.91,9.91,0,0,0,10.09-.13,21.19,21.19,0,0,0,4.66-3.32,105.64,105.64,0,0,0,9-9.9,533.28,533.28,0,0,0,33.2-48.17c9.42-15.61,19.16-31,28.93-46.39,8.91-14,17.73-28.17,27.93-41.33,17.43-22.49,40.41-35.83,68.32-41a123.63,123.63,0,0,1,29.61-1.89c17.7,1,34.89,4.52,51.08,11.95a105.53,105.53,0,0,1,28.32,19.48c16,15,26.93,33.17,34.2,53.68,1.28,3.61,2.12,7.37,3.13,11.07a21.31,21.31,0,0,1,.56,2.82c1.63,11.2-2.39,19.29-12.51,24.56a52.57,52.57,0,0,1-9.8,3.83c-9.69,2.78-18.35.42-25.94-6a48.78,48.78,0,0,1-9.53-10.73c-1.93-2.95-4-5.81-5.81-8.81A119.78,119.78,0,0,0,1942.6,873c-8.81-8.89-18.68-16.56-31.42-19.34-9-2-17.79-1.56-26.32,2.11a72.28,72.28,0,0,0-21.59,14.05,145,145,0,0,0-19.74,23.44c-8,11.62-14.92,23.86-22.33,35.82-8.59,13.86-17.19,27.72-26,41.47q-12.13,19-24.64,37.76c-8.53,12.77-17.13,25.49-26,38a84.08,84.08,0,0,0-13.95,34.4C1728.94,1090.51,1727.55,1100.36,1728.23,1108.8Z" transform="translate(-238.19 -767.77)"/><g id="Glasses"><path class="cls-2" d="M761.07,1287.14c-40,0-78.75-16.65-109.26-46.9s-50-71.85-54.58-116.75c-.79-7.82-1.61-15.91-1.18-24.31a2.88,2.88,0,0,0-1.25-3.08c-7.77-7.13-14.23-12.49-21.07-18.16s-13.75-11.39-22-19l-.36-.32-.27-.31c-.62-.63-3-2.75-4.77-4.3-5.62-5-8-7.16-9.38-9-8.45-11.3-5.31-19-2.69-22.52a16,16,0,0,1,13-6.47,17.09,17.09,0,0,1,7.73,1.84c5.86,3,14.32,10.63,14.67,11,6.15,5.58,13.14,11.31,19.9,16.84,3.78,3.1,7.63,6.25,11.4,9.43,12-42.12,30.38-75.1,54.84-98.15,28.84-27.19,66.31-41,111.36-41h.21c33.9,0,67.86,13.52,95.62,38,27.51,24.24,47.41,57.64,58,97.09a113.92,113.92,0,0,1,34.56-5.58,99.06,99.06,0,0,1,36.45,7c10.55-44.84,32.57-80.74,65.56-106.84,28.1-22.23,59.84-33.5,94.34-33.5h.14c40.69,0,77,15.06,107.82,44.65,24.6,23.59,41.11,45.16,49.94,81.31l2-2.11c3.3-3.58,6.71-7.27,10.37-11,.56-.56,1.25-1.27,2-2.07,4.31-4.41,8.1-8.24,10.71-10.37a53.61,53.61,0,0,0,4.67-4.52c3.87-4.08,8.7-9.15,16.16-9.15a18.16,18.16,0,0,1,11.59,4.56l.94.76,1.1,1.47c2.15,2.85,5.39,7.16,3.87,13.12-1,4-3.44,6.38-7.46,10.39-1.69,1.69-3.79,3.79-6.43,6.59l-.12.13-.13.13c-8.56,8.47-17,17.56-24.39,26.27l-.3.35-.33.32c-4.34,4.25-12,16.13-16.06,23.21-1.1,2.33-.91,11.12-.81,15.84a98.27,98.27,0,0,1-.17,11.59c-4,37.82-14.87,70.23-32.18,96.33-17.91,27-42.85,47.43-74.14,60.73-20.76,8.82-41.42,13.3-61.42,13.3-40.25,0-77.6-17.69-111-52.58-34.71-36.26-51.81-82.66-50.8-137.9.1-5.41-1.1-6.1-3.48-7.48a42.31,42.31,0,0,0-16.29-5.42,111,111,0,0,0-13.7-.92c-10.07,0-18.79,1.77-26.68,5.42l-1,.47c0,.69.08,1.45.12,2.18,2.7,45.69-9.24,90.52-33.62,126.29-24.59,36.06-60.35,60.8-100.69,69.66a144.3,144.3,0,0,1-30.94,3.37Zm0-337.66c-73.31.15-132.84,68.48-132.7,152.32.14,83.3,59.74,151.09,132.86,151.12,35.36,0,68.63-15.63,93.74-44,25.42-28.74,39.41-67,39.41-107.78,0-83.61-59.71-151.64-133.07-151.64Zm391-3.27c-73,.06-132.5,67.86-132.55,151.14,0,83.49,59.18,151.57,132,151.78h.35c73.32,0,133-67.8,133.06-151.16,0-40.91-13.89-79.23-39.18-107.88-25-28.3-58.23-43.88-93.62-43.88Z" transform="translate(-238.19 -767.77)"/><path class="cls-2" d="M606.78,1072.37C628.87,979.17,680.25,926,767.32,926c61.58.06,127,48.51,146.5,138.24,28.44-11.39,56.82-12.76,85.33,2.6,8.62-47.48,29.58-85.7,64.55-113.36,26.43-20.91,56-31.37,88.26-31.34,38.13,0,71.88,14,100.91,41.87,27.84,26.7,42.41,48.91,49.54,87.7.58,3.17,4,4.35,6.09,2.17l0-.05c7.21-7.23,13.41-14.51,20.6-21.76,2.77-2.79,9-9.28,12-11.74,8.09-6.59,11.68-15.73,19.77-9.11,4.73,6.3,3.8,4.19-8.94,17.74-7.54,7.47-16.32,16.71-25,26.9-5.52,5.42-13.9,18.68-17.74,25.38-3.75,6.54-1.4,23.48-2.24,31.34-7.69,71.87-40.41,123.48-100.29,148.93-59.5,25.29-114.53,11.84-161.29-37-33.36-34.84-49-79.39-48-130.8.15-8.42-2.43-12.83-8.49-16.32a52.39,52.39,0,0,0-20.06-6.69c-15.62-1.93-31-1.49-45.8,5.36-7.21,3.33-7.19,3.4-6.66,12.37,5.31,89.81-48.24,168.35-126.48,185.53-87.25,19.16-172.58-51.61-182.7-151.52-.76-7.58-1.53-15.17-1.14-22.79a12.59,12.59,0,0,0-4.47-11c-15.91-14.6-26.9-22.29-43.12-37.15-1.67-1.85-12-10.5-13.52-12.5-2-2.74-4.91-7.52-2.65-10.59a6.46,6.46,0,0,1,8.15-1.65c3.51,1.77,9.5,6.73,12.47,9.43,12.32,11.21,27.06,22.23,39.44,33.36C603.66,1070.83,604.94,1072.3,606.78,1072.37ZM761.06,939.48c-79,.16-142.83,72.83-142.68,162.34.15,88.82,64.22,161.07,142.85,161.1,79,0,143.17-72.44,143.16-161.8S840,939.32,761.06,939.48Zm248.48,157.87c0,89.3,63.37,161.56,142,161.78,79.41.23,143.39-71.64,143.44-161.15.06-89.69-63.68-161.84-142.91-161.77C1073.24,936.27,1009.6,1008.22,1009.54,1097.35Z" transform="translate(-238.19 -767.77)"/><path class="cls-2" d="M761,1287.27c-31.41,0-62.22-10.3-89.12-29.77a180.54,180.54,0,0,1-50.32-56.63,195.07,195.07,0,0,1-24.49-77.37c-.79-7.83-1.61-15.92-1.18-24.33.08-1.63,0-1.88-1.21-3-7.77-7.13-14.53-12.73-21.07-18.15-6.77-5.61-13.75-11.39-22-19l-.35-.33-.28-.3c-.62-.64-3.1-2.84-4.75-4.29-5.64-5-8.06-7.19-9.41-9-8.82-11.79-4.82-19.78-2.69-22.67a16.07,16.07,0,0,1,13.08-6.53,17.3,17.3,0,0,1,7.8,1.86c5.77,2.92,13.8,10.16,14.7,11,6.15,5.6,13.13,11.32,19.89,16.84,3.73,3.06,7.53,6.17,11.25,9.31a271.28,271.28,0,0,1,19.08-49.39c9.87-19.23,21.92-35.61,35.81-48.7a144.92,144.92,0,0,1,49.36-30.58c18.58-6.87,39.45-10.36,62-10.36h.19c33.94,0,67.93,13.54,95.72,38,27.5,24.22,47.4,57.6,58,97a116,116,0,0,1,34.49-5.56,99.26,99.26,0,0,1,36.34,6.93,207.89,207.89,0,0,1,20.89-54.56,177.3,177.3,0,0,1,44.69-52.21c28.12-22.25,59.88-33.52,94.41-33.52h.13a150.18,150.18,0,0,1,57.75,11.27c17.93,7.44,34.81,18.68,50.17,33.41,15.78,15.13,26.35,27.94,34.27,41.53a145.87,145.87,0,0,1,15.65,39.61l1.75-1.89c3.33-3.62,6.74-7.3,10.41-11l2-2.06c4.32-4.43,8.11-8.26,10.72-10.39a51.9,51.9,0,0,0,4.65-4.51c3.89-4.09,8.73-9.17,16.27-9.17a18.31,18.31,0,0,1,11.66,4.57l.91.75,1.12,1.47c2.18,2.89,5.44,7.21,3.92,13.22-1,4-3.6,6.6-7.49,10.49-1.71,1.7-3.81,3.8-6.43,6.59l-.12.13-.13.12c-8.57,8.48-17,17.57-24.39,26.27l-.29.35-.33.32c-3.94,3.85-11.25,14.82-16,23.19-1.08,2.31-.89,11.07-.79,15.77a96.41,96.41,0,0,1-.18,11.61c-4,37.84-14.87,70.27-32.19,96.39-17.93,27-42.89,47.47-74.2,60.77-20.76,8.83-41.45,13.3-61.5,13.31a133.31,133.31,0,0,1-30.18-3.46c-28.89-6.74-56.11-23.28-80.89-49.16A178,178,0,0,1,999,1168.82c-8.29-22.86-12.25-48.18-11.75-75.26.09-5.13-.92-5.92-3.42-7.36a42.46,42.46,0,0,0-16.24-5.41,112.73,112.73,0,0,0-13.83-.92c-10.08,0-18.5,1.72-26.48,5.42l-.93.42c0,.68.08,1.41.12,2.1a210.58,210.58,0,0,1-6.86,67.77,193.72,193.72,0,0,1-26.79,58.6,173.09,173.09,0,0,1-43.61,44.5,157.93,157.93,0,0,1-57.16,25.21,144.88,144.88,0,0,1-31,3.38Zm0-337.66c-73.22.14-132.69,68.42-132.55,152.19.14,83.23,59.68,151,132.73,151,35.31,0,68.55-15.61,93.63-44,25.41-28.71,39.4-67,39.39-107.71,0-43.59-16.59-85.14-45.51-114-24.25-24.2-55.3-37.53-87.43-37.53Zm391-3.28c-73,.06-132.37,67.81-132.42,151,0,83.42,59.12,151.45,131.91,151.66h.34c32.39,0,63.54-13.27,87.73-37.37,28.71-28.61,45.19-70.05,45.22-113.67,0-43.85-16.45-85.49-45.2-114.23-24.13-24.12-55.2-37.41-87.48-37.41Zm150.21,118.31c.39,2.24.73,4.48,1,6.74,1.1-1.81,2.46-4,4-6.29a11.73,11.73,0,0,1-1.33.07A13.14,13.14,0,0,1,1302.3,1064.64Z" transform="translate(-238.19 -767.77)"/><path class="cls-2" d="M761,1277.27c-29.13,0-57.91-9.52-83.25-27.87a170.41,170.41,0,0,1-47.5-53.48,185.06,185.06,0,0,1-23.23-73.42c-.76-7.46-1.54-15.16-1.14-22.82a12.44,12.44,0,0,0-4.44-10.85c-8-7.31-14.82-13-21.45-18.49s-13.56-11.23-21.66-18.66c-.72-.79-3.06-2.86-5.53-5a101.66,101.66,0,0,1-8-7.48c-2-2.65-5-7.58-2.65-10.74a6.57,6.57,0,0,1,8.31-1.68c3.47,1.76,9.37,6.61,12.49,9.45,6.34,5.76,13.42,11.57,20.28,17.18,6.46,5.29,13.15,10.77,19.16,16.17l.58.54c1.08,1,2.21,2.06,3.68,2.16,5.56-23.41,13-44.31,22.15-62.12,9.34-18.22,20.7-33.69,33.76-46a134.86,134.86,0,0,1,46-28.48c17.47-6.46,37.17-9.74,58.56-9.74h.19c31.49,0,63.14,12.65,89.11,35.53,28.41,25,48.29,60.53,57.48,102.67,31-12.38,58.86-11.54,85.15,2.58,4.35-23.84,11.87-45.36,22.38-64a167.37,167.37,0,0,1,42.18-49.28c26.31-20.81,56-31.36,88.21-31.36h.13a140.16,140.16,0,0,1,53.92,10.51c16.78,7,32.62,17.52,47.08,31.39,15.08,14.46,25.12,26.6,32.55,39.34,8.09,13.87,13.49,29.25,17,48.42a3.77,3.77,0,0,0,2.52,3,3.31,3.31,0,0,0,3.36-.93l0-.06c3.67-3.67,7.13-7.43,10.48-11.06s6.59-7.14,10.12-10.7c.57-.57,1.28-1.3,2.08-2.12,3.16-3.23,7.5-7.67,9.89-9.62a60.1,60.1,0,0,0,5.58-5.37c4.63-4.87,8.29-8.71,14.35-3.75l.4.53c3.37,4.47,3.34,4.57-2.68,10.58-1.74,1.74-3.9,3.9-6.65,6.82-8.76,8.67-17.39,18-25,26.9-5.34,5.23-13.53,18-17.73,25.35-2.47,4.31-2.28,13.16-2.11,21a91.72,91.72,0,0,1-.12,10.33c-3.87,36.23-14.16,67.16-30.59,91.92-16.82,25.36-40.29,44.57-69.77,57.1s-58.24,15.66-85.5,9.31c-27-6.29-52.52-21.88-75.94-46.33a168.38,168.38,0,0,1-36.9-59.23c-7.87-21.71-11.63-45.82-11.16-71.66.15-8.09-2.21-12.63-8.42-16.21a52,52,0,0,0-20-6.67c-18.67-2.31-32.77-.66-45.73,5.34-7.12,3.29-7.12,3.29-6.59,12.19v.06A200.58,200.58,0,0,1,910,1153a183.68,183.68,0,0,1-25.4,55.57,163.28,163.28,0,0,1-41.09,42,148.13,148.13,0,0,1-53.56,23.62A134.21,134.21,0,0,1,761,1277.27ZM547.21,1026.21a5.84,5.84,0,0,0-4.83,2.36c-2.23,3,.7,7.84,2.65,10.44a102.68,102.68,0,0,0,8,7.44c2.48,2.19,4.83,4.26,5.54,5.06,8.1,7.41,15,13.12,21.65,18.64s13.5,11.18,21.46,18.5a12.64,12.64,0,0,1,4.52,11c-.4,7.63.38,15.33,1.14,22.77,5.25,51.83,31,98,70.63,126.73,33.65,24.37,73.4,33.14,111.92,24.68,78.55-17.25,131.71-95.22,126.38-185.4v-.07c-.53-9-.47-9.09,6.73-12.43,13-6,27.15-7.67,45.87-5.36a52.3,52.3,0,0,1,20.11,6.7c6.3,3.63,8.69,8.24,8.54,16.43-1,52.48,15.2,96.46,48,130.71,47,49,102.68,61.82,161.15,37s92.32-75,100.21-148.82a93.37,93.37,0,0,0,.12-10.29c-.17-7.84-.36-16.74,2.14-21.1,4.21-7.34,12.42-20.16,17.77-25.41,7.57-8.91,16.21-18.22,25-26.9,2.75-2.91,4.92-5.08,6.66-6.82,5.92-5.91,5.92-5.91,2.65-10.25l-.38-.51c-5.86-4.79-9.27-1.21-14,3.75a60.54,60.54,0,0,1-5.6,5.39c-2.38,1.95-6.71,6.38-9.87,9.61l-2.08,2.12c-3.53,3.56-6.88,7.18-10.12,10.69s-6.81,7.39-10.48,11.07l-.05,0a3.57,3.57,0,0,1-3.61,1,4,4,0,0,1-2.7-3.24c-7.49-40.78-23.82-63-49.5-87.63-28.91-27.73-62.83-41.8-100.82-41.83h-.13c-32.16,0-61.79,10.53-88.06,31.31-34,26.92-55.73,65-64.49,113.28l0,.17-.16-.08c-26.3-14.18-54.18-15-85.23-2.6l-.13.06,0-.15c-20.63-94.83-90.34-138.08-146.38-138.14h-.19c-83.33,0-137.23,49.2-160.23,146.24l0,.1h-.11c-1.62-.06-2.8-1.16-3.94-2.23l-.58-.53c-6-5.4-12.69-10.87-19.15-16.17-6.86-5.61-14-11.42-20.29-17.18-3.11-2.83-9-7.67-12.43-9.42A7.11,7.11,0,0,0,547.21,1026.21ZM761.28,1263h0c-78.68,0-142.82-72.35-143-161.22a180.06,180.06,0,0,1,11.13-63.15A164.48,164.48,0,0,1,660,987.06a143.24,143.24,0,0,1,45.42-34.85,128,128,0,0,1,55.68-12.85v0h.26c34.87,0,68.48,14.39,94.67,40.52a161.75,161.75,0,0,1,35.41,53.67,181.43,181.43,0,0,1,1.86,130.61,164,164,0,0,1-30.71,51.47A143.12,143.12,0,0,1,817,1250.33,128.35,128.35,0,0,1,761.28,1263Zm0-323.44h-.26c-78.75.16-142.7,72.93-142.55,162.21.15,88.73,64.17,160.94,142.72,161h0c38.18,0,74.07-16.81,101.08-47.33s41.91-71.15,41.9-114.34c0-46.23-17.66-90.36-48.45-121.07C829.67,954,796.12,939.6,761.32,939.6Zm390.6,319.66h-.37a127.56,127.56,0,0,1-55.43-12.83,142.5,142.5,0,0,1-45.18-34.7,163.91,163.91,0,0,1-30.41-51.42,180,180,0,0,1-11.11-63h0a179.23,179.23,0,0,1,11.21-62.82,163,163,0,0,1,30.55-51.23,142.22,142.22,0,0,1,45.32-34.53,128.34,128.34,0,0,1,55.58-12.69h.11a128.49,128.49,0,0,1,51.53,10.75,140,140,0,0,1,43.2,29.66,160.58,160.58,0,0,1,35.22,53.66,182.53,182.53,0,0,1-.05,135.33,160.23,160.23,0,0,1-35.21,53.42C1220.75,1244.93,1187,1259.26,1151.92,1259.26Zm.27-322.93h-.11c-78.47.07-142.36,72.3-142.41,161-.06,88.91,63.59,161.43,141.88,161.66h.37c35.06,0,68.7-14.3,94.79-40.29,30.57-30.47,48.13-74.48,48.16-120.74,0-46.49-17.52-90.71-48.13-121.31C1220.72,950.65,1187.15,936.33,1152.19,936.33Z" transform="translate(-238.19 -767.77)"/></g><g id="Glasses-2" data-name="Glasses"><path class="cls-2" d="M606.78,1072.37C628.87,979.17,680.25,926,767.32,926c61.58.06,127,48.51,146.5,138.24,28.44-11.39,56.82-12.76,85.33,2.6,8.62-47.48,29.58-85.7,64.55-113.36,26.43-20.91,56-31.37,88.26-31.34,38.13,0,71.88,14,100.91,41.87,27.84,26.7,42.41,48.91,49.54,87.7.58,3.17,4,4.35,6.09,2.17l0-.05c7.21-7.23,13.41-14.51,20.6-21.76,2.77-2.79,9-9.28,12-11.74,8.09-6.59,11.68-15.73,19.77-9.11,4.73,6.3,3.8,4.19-8.94,17.74-7.54,7.47-16.32,16.71-25,26.9-5.52,5.42-13.9,18.68-17.74,25.38-3.75,6.54-1.4,23.48-2.24,31.34-7.69,71.87-40.41,123.48-100.29,148.93-59.5,25.29-114.53,11.84-161.29-37-33.36-34.84-49-79.39-48-130.8.15-8.42-2.43-12.83-8.49-16.32a52.39,52.39,0,0,0-20.06-6.69c-15.62-1.93-31-1.49-45.8,5.36-7.21,3.33-7.19,3.4-6.66,12.37,5.31,89.81-48.24,168.35-126.48,185.53-87.25,19.16-172.58-51.61-182.7-151.52-.76-7.58-1.53-15.17-1.14-22.79a12.59,12.59,0,0,0-4.47-11c-15.91-14.6-26.9-22.29-43.12-37.15-1.67-1.85-12-10.5-13.52-12.5-2-2.74-4.91-7.52-2.65-10.59a6.46,6.46,0,0,1,8.15-1.65c3.51,1.77,9.5,6.73,12.47,9.43,12.32,11.21,27.06,22.23,39.44,33.36C603.66,1070.83,604.94,1072.3,606.78,1072.37ZM761.06,939.48c-79,.16-142.83,72.83-142.68,162.34.15,88.82,64.22,161.07,142.85,161.1,79,0,143.17-72.44,143.16-161.8S840,939.32,761.06,939.48Zm248.48,157.87c0,89.3,63.37,161.56,142,161.78,79.41.23,143.39-71.64,143.44-161.15.06-89.69-63.68-161.84-142.91-161.77C1073.24,936.27,1009.6,1008.22,1009.54,1097.35Z" transform="translate(-238.19 -767.77)"/><path class="cls-2" d="M761,1277.27c-29.13,0-57.91-9.52-83.25-27.87a170.41,170.41,0,0,1-47.5-53.48,185.06,185.06,0,0,1-23.23-73.42c-.76-7.46-1.54-15.16-1.14-22.82a12.44,12.44,0,0,0-4.44-10.85c-8-7.31-14.82-13-21.45-18.49s-13.56-11.23-21.66-18.66c-.72-.79-3.06-2.86-5.53-5a101.66,101.66,0,0,1-8-7.48c-2-2.65-5-7.58-2.65-10.74a6.57,6.57,0,0,1,8.31-1.68c3.47,1.76,9.37,6.61,12.49,9.45,6.34,5.76,13.42,11.57,20.28,17.18,6.46,5.29,13.15,10.77,19.16,16.17l.58.54c1.08,1,2.21,2.06,3.68,2.16,5.56-23.41,13-44.31,22.15-62.12,9.34-18.22,20.7-33.69,33.76-46a134.86,134.86,0,0,1,46-28.48c17.47-6.46,37.17-9.74,58.56-9.74h.19c31.49,0,63.14,12.65,89.11,35.53,28.41,25,48.29,60.53,57.48,102.67,31-12.38,58.86-11.54,85.15,2.58,4.35-23.84,11.87-45.36,22.38-64a167.37,167.37,0,0,1,42.18-49.28c26.31-20.81,56-31.36,88.21-31.36h.13a140.16,140.16,0,0,1,53.92,10.51c16.78,7,32.62,17.52,47.08,31.39,15.08,14.46,25.12,26.6,32.55,39.34,8.09,13.87,13.49,29.25,17,48.42a3.77,3.77,0,0,0,2.52,3,3.31,3.31,0,0,0,3.36-.93l0-.06c3.67-3.67,7.13-7.43,10.48-11.06s6.59-7.14,10.12-10.7c.57-.57,1.28-1.3,2.08-2.12,3.16-3.23,7.5-7.67,9.89-9.62a60.1,60.1,0,0,0,5.58-5.37c4.63-4.87,8.29-8.71,14.35-3.75l.4.53c3.37,4.47,3.34,4.57-2.68,10.58-1.74,1.74-3.9,3.9-6.65,6.82-8.76,8.67-17.39,18-25,26.9-5.34,5.23-13.53,18-17.73,25.35-2.47,4.31-2.28,13.16-2.11,21a91.72,91.72,0,0,1-.12,10.33c-3.87,36.23-14.16,67.16-30.59,91.92-16.82,25.36-40.29,44.57-69.77,57.1s-58.24,15.66-85.5,9.31c-27-6.29-52.52-21.88-75.94-46.33a168.38,168.38,0,0,1-36.9-59.23c-7.87-21.71-11.63-45.82-11.16-71.66.15-8.09-2.21-12.63-8.42-16.21a52,52,0,0,0-20-6.67c-18.67-2.31-32.77-.66-45.73,5.34-7.12,3.29-7.12,3.29-6.59,12.19v.06A200.58,200.58,0,0,1,910,1153a183.68,183.68,0,0,1-25.4,55.57,163.28,163.28,0,0,1-41.09,42,148.13,148.13,0,0,1-53.56,23.62A134.21,134.21,0,0,1,761,1277.27ZM547.21,1026.21a5.84,5.84,0,0,0-4.83,2.36c-2.23,3,.7,7.84,2.65,10.44a102.68,102.68,0,0,0,8,7.44c2.48,2.19,4.83,4.26,5.54,5.06,8.1,7.41,15,13.12,21.65,18.64s13.5,11.18,21.46,18.5a12.64,12.64,0,0,1,4.52,11c-.4,7.63.38,15.33,1.14,22.77,5.25,51.83,31,98,70.63,126.73,33.65,24.37,73.4,33.14,111.92,24.68,78.55-17.25,131.71-95.22,126.38-185.4v-.07c-.53-9-.47-9.09,6.73-12.43,13-6,27.15-7.67,45.87-5.36a52.3,52.3,0,0,1,20.11,6.7c6.3,3.63,8.69,8.24,8.54,16.43-1,52.48,15.2,96.46,48,130.71,47,49,102.68,61.82,161.15,37s92.32-75,100.21-148.82a93.37,93.37,0,0,0,.12-10.29c-.17-7.84-.36-16.74,2.14-21.1,4.21-7.34,12.42-20.16,17.77-25.41,7.57-8.91,16.21-18.22,25-26.9,2.75-2.91,4.92-5.08,6.66-6.82,5.92-5.91,5.92-5.91,2.65-10.25l-.38-.51c-5.86-4.79-9.27-1.21-14,3.75a60.54,60.54,0,0,1-5.6,5.39c-2.38,1.95-6.71,6.38-9.87,9.61l-2.08,2.12c-3.53,3.56-6.88,7.18-10.12,10.69s-6.81,7.39-10.48,11.07l-.05,0a3.57,3.57,0,0,1-3.61,1,4,4,0,0,1-2.7-3.24c-7.49-40.78-23.82-63-49.5-87.63-28.91-27.73-62.83-41.8-100.82-41.83h-.13c-32.16,0-61.79,10.53-88.06,31.31-34,26.92-55.73,65-64.49,113.28l0,.17-.16-.08c-26.3-14.18-54.18-15-85.23-2.6l-.13.06,0-.15c-20.63-94.83-90.34-138.08-146.38-138.14h-.19c-83.33,0-137.23,49.2-160.23,146.24l0,.1h-.11c-1.62-.06-2.8-1.16-3.94-2.23l-.58-.53c-6-5.4-12.69-10.87-19.15-16.17-6.86-5.61-14-11.42-20.29-17.18-3.11-2.83-9-7.67-12.43-9.42A7.11,7.11,0,0,0,547.21,1026.21ZM761.28,1263h0c-78.68,0-142.82-72.35-143-161.22a180.06,180.06,0,0,1,11.13-63.15A164.48,164.48,0,0,1,660,987.06a143.24,143.24,0,0,1,45.42-34.85,128,128,0,0,1,55.68-12.85v0h.26c34.87,0,68.48,14.39,94.67,40.52a161.75,161.75,0,0,1,35.41,53.67,181.43,181.43,0,0,1,1.86,130.61,164,164,0,0,1-30.71,51.47A143.12,143.12,0,0,1,817,1250.33,128.35,128.35,0,0,1,761.28,1263Zm0-323.44h-.26c-78.75.16-142.7,72.93-142.55,162.21.15,88.73,64.17,160.94,142.72,161h0c38.18,0,74.07-16.81,101.08-47.33s41.91-71.15,41.9-114.34c0-46.23-17.66-90.36-48.45-121.07C829.67,954,796.12,939.6,761.32,939.6Zm390.6,319.66h-.37a127.56,127.56,0,0,1-55.43-12.83,142.5,142.5,0,0,1-45.18-34.7,163.91,163.91,0,0,1-30.41-51.42,180,180,0,0,1-11.11-63h0a179.23,179.23,0,0,1,11.21-62.82,163,163,0,0,1,30.55-51.23,142.22,142.22,0,0,1,45.32-34.53,128.34,128.34,0,0,1,55.58-12.69h.11a128.49,128.49,0,0,1,51.53,10.75,140,140,0,0,1,43.2,29.66,160.58,160.58,0,0,1,35.22,53.66,182.53,182.53,0,0,1-.05,135.33,160.23,160.23,0,0,1-35.21,53.42C1220.75,1244.93,1187,1259.26,1151.92,1259.26Zm.27-322.93h-.11c-78.47.07-142.36,72.3-142.41,161-.06,88.91,63.59,161.43,141.88,161.66h.37c35.06,0,68.7-14.3,94.79-40.29,30.57-30.47,48.13-74.48,48.16-120.74,0-46.49-17.52-90.71-48.13-121.31C1220.72,950.65,1187.15,936.33,1152.19,936.33Z" transform="translate(-238.19 -767.77)"/></g><path class="cls-3" d="M349,1071.71c-7.54-8.75-21.89-4.36-23.09,7.13-2.86,27.34.05,54-1.16,80.2-.72,15.53,1.71,31.33-5.65,46.11-5.33,10.71-11.88,19.34-25,20-15.09.71-24.53-7.78-28.35-20.92a139.16,139.16,0,0,1-5.27-37.56c-.47-74-.38-148-.14-222,.07-22.79-1.63-48.94,26.47-56.2s34.07,20.78,45,37.14c22.8,34.15,43.31,69.86,64.4,105.16,11.46,19.18,21.62,19.85,33.31,0,23-39.11,47-77.63,70-116.77,8.87-15.12,16.47-31.85,38.08-25.62,21.33,6.15,25.61,23.38,25.54,43.64q-.51,155.81-.08,311.62c.16,76.19,40.42,101.5,109.15,67.54,18.29-9,32.45-8.63,44.81,7.24,15.23,19.57.55,32.51-12.75,42.58-39.16,29.65-82.48,36.49-127.52,15.41-42.84-20.05-69.8-54.16-71.53-102.55-2.17-61.11-.7-122.35-1-183.53-.06-11.1,2.56-26.15-10.52-29.43s-18,12.15-24.39,21.39c-4.71,6.81-9.34,13.68-13.6,20.78-38.24,63.6-50.51,63.12-89-2.41C361.12,1091.25,356.75,1080.72,349,1071.71Z" transform="translate(-238.19 -767.77)"/><path class="cls-4" d="M1784.59,865.14c-20.49,29.33-39,60.08-59.57,89.4-28.08,40.11-32.71,40.22-61-1.47-10.34-15.26-21.25-30.19-30.78-46-11.3-18.71-25.29-27.43-45.2-13.76-20.41,14-14.69,31.28-3.52,48.21,8.59,13,16.76,26.42,26.27,38.74,41.34,53.51,64.35,111.87,55.38,181.52-3.08,24-7.87,60.35,27.34,60.9,39.48.61,27.92-37.31,30.25-62.53,3.58-38.88-9.72-79.56,15.35-116.17,28.83-42.1,57.48-84.49,83.23-128.52q4-6.82,8.14-13.28A449.19,449.19,0,0,1,1784.59,865.14Z" transform="translate(-238.19 -767.77)"/><path class="cls-5" d="M1346.28,1054.2c0-39.79-.2-79.57.09-119.35.22-32.19,13.42-47.39,48.69-49,87-4,155.43,21.41,193.12,106.26,45.41,102.26-30.77,227.65-142.08,233.55-98.44,5.22-99.85,3.89-99.85-94.72Q1346.25,1092.56,1346.28,1054.2Zm102.91-108.88c-29.35-.77-44.35,10.8-44.56,37.39-.41,49.74-.59,99.48.18,149.21.32,20.52,8.53,34.33,32.76,35.65,53.21,2.89,106.9-49.73,109.14-108.91C1548.67,1006.71,1493.77,945.28,1449.19,945.32Z" transform="translate(-238.19 -767.77)"/><path class="cls-4" d="M2001.8,915.48c-18.9,6.91-31.13-.24-41.85-17.6-40.28-65.22-85.76-64.91-126.27-.37-11.48,18.29-22.14,36.39-33.61,54.69-15-12.77-34.24-23.72-51.17-34,16.18-26,32.55-51.85,49.67-77.2,27.11-40.13,68-54.76,115-49.07,49.37,6,82.48,34.75,100,80.64C2019.5,888.21,2025.08,907,2001.8,915.48Z" transform="translate(-238.19 -767.77)"/></svg>